<svg xmlns="http://www.w3.org/2000/svg" viewBox="0 0 720 400" font-family="sans-serif" font-size="12">
<text x="56" y="22" fill="#808080" font-size="14">clang++ 19.1.7 -O0, three checks per case</text>
<line x1="56" x2="550" y1="356.0" y2="356.0" stroke="#808080" stroke-opacity="0.3"/>
<text x="50" y="360.0" fill="#808080" text-anchor="end">0 s</text>
<line x1="56" x2="550" y1="277.0" y2="277.0" stroke="#808080" stroke-opacity="0.3"/>
<text x="50" y="281.0" fill="#808080" text-anchor="end">2 s</text>
<line x1="56" x2="550" y1="198.0" y2="198.0" stroke="#808080" stroke-opacity="0.3"/>
<text x="50" y="202.0" fill="#808080" text-anchor="end">4 s</text>
<line x1="56" x2="550" y1="119.0" y2="119.0" stroke="#808080" stroke-opacity="0.3"/>
<text x="50" y="123.0" fill="#808080" text-anchor="end">6 s</text>
<line x1="56" x2="550" y1="40.0" y2="40.0" stroke="#808080" stroke-opacity="0.3"/>
<text x="50" y="44.0" fill="#808080" text-anchor="end">8 s</text>
<text x="58.5" y="372" fill="#808080" text-anchor="middle">1</text>
<text x="179.5" y="372" fill="#808080" text-anchor="middle">50</text>
<text x="550.0" y="372" fill="#808080" text-anchor="middle">200</text>
<text x="303.0" y="392" fill="#808080" text-anchor="middle">test cases in the unit</text>
<text x="558" y="301.6" fill="#d1495b" font-weight="bold">TTS +6.0 ms</text>
<text x="558" y="260.0" fill="#2e86ab" font-weight="bold">Catch2 +4.8 ms</text>
<text x="558" y="246.0" fill="#e09f3e" font-weight="bold">GoogleTest +5.4 ms</text>
<text x="558" y="232.0" fill="#3fa34d" font-weight="bold">doctest +5.1 ms</text>
<text x="558" y="128.1" fill="#5c8a8a" font-weight="bold">ut +16.9 ms</text>
<text x="558" y="90.0" fill="#8e6bbf" font-weight="bold">Boost.Test +9.7 ms</text>
<polyline points="58.5,161.5 179.5,144.5 550.0,86.0" fill="none" stroke="#8e6bbf" stroke-width="2.5"/>
<circle cx="58.5" cy="161.5" r="3" fill="#8e6bbf"/>
<circle cx="179.5" cy="144.5" r="3" fill="#8e6bbf"/>
<circle cx="550.0" cy="86.0" r="3" fill="#8e6bbf"/>
<polyline points="58.5,293.6 179.5,285.7 550.0,256.0" fill="none" stroke="#2e86ab" stroke-width="2.5"/>
<circle cx="58.5" cy="293.6" r="3" fill="#2e86ab"/>
<circle cx="179.5" cy="285.7" r="3" fill="#2e86ab"/>
<circle cx="550.0" cy="256.0" r="3" fill="#2e86ab"/>
<polyline points="58.5,276.8 179.5,267.3 550.0,237.1" fill="none" stroke="#3fa34d" stroke-width="2.5"/>
<circle cx="58.5" cy="276.8" r="3" fill="#3fa34d"/>
<circle cx="179.5" cy="267.3" r="3" fill="#3fa34d"/>
<circle cx="550.0" cy="237.1" r="3" fill="#3fa34d"/>
<polyline points="58.5,294.9 179.5,284.8 550.0,252.2" fill="none" stroke="#e09f3e" stroke-width="2.5"/>
<circle cx="58.5" cy="294.9" r="3" fill="#e09f3e"/>
<circle cx="179.5" cy="284.8" r="3" fill="#e09f3e"/>
<circle cx="550.0" cy="252.2" r="3" fill="#e09f3e"/>
<polyline points="58.5,345.0 179.5,333.6 550.0,297.6" fill="none" stroke="#d1495b" stroke-width="2.5"/>
<circle cx="58.5" cy="345.0" r="3" fill="#d1495b"/>
<circle cx="179.5" cy="333.6" r="3" fill="#d1495b"/>
<circle cx="550.0" cy="297.6" r="3" fill="#d1495b"/>
<polyline points="58.5,256.3 179.5,225.2 550.0,124.1" fill="none" stroke="#5c8a8a" stroke-width="2.5"/>
<circle cx="58.5" cy="256.3" r="3" fill="#5c8a8a"/>
<circle cx="179.5" cy="225.2" r="3" fill="#5c8a8a"/>
<circle cx="550.0" cy="124.1" r="3" fill="#5c8a8a"/>
</svg>