<svg xmlns="http://www.w3.org/2000/svg" viewBox="0 0 720 400" font-family="sans-serif" font-size="12">
<text x="56" y="22" fill="#808080" font-size="14">clang++ 19.1.7 -O0, three checks per case, over four types</text>
<line x1="56" x2="550" y1="356.0" y2="356.0" stroke="#808080" stroke-opacity="0.3"/>
<text x="50" y="360.0" fill="#808080" text-anchor="end">0 s</text>
<line x1="56" x2="550" y1="250.7" y2="250.7" stroke="#808080" stroke-opacity="0.3"/>
<text x="50" y="254.7" fill="#808080" text-anchor="end">2 s</text>
<line x1="56" x2="550" y1="145.3" y2="145.3" stroke="#808080" stroke-opacity="0.3"/>
<text x="50" y="149.3" fill="#808080" text-anchor="end">4 s</text>
<line x1="56" x2="550" y1="40.0" y2="40.0" stroke="#808080" stroke-opacity="0.3"/>
<text x="50" y="44.0" fill="#808080" text-anchor="end">6 s</text>
<text x="60.9" y="372" fill="#808080" text-anchor="middle">1</text>
<text x="179.5" y="372" fill="#808080" text-anchor="middle">25</text>
<text x="550.0" y="372" fill="#808080" text-anchor="middle">100</text>
<text x="303.0" y="392" fill="#808080" text-anchor="middle">test cases in the unit</text>
<text x="558" y="298.6" fill="#d1495b" font-weight="bold">TTS +10.4 ms</text>
<text x="558" y="271.0" fill="#2e86ab" font-weight="bold">Catch2 +9.8 ms</text>
<text x="558" y="257.0" fill="#3fa34d" font-weight="bold">doctest +8.6 ms</text>
<text x="558" y="236.3" fill="#e09f3e" font-weight="bold">GoogleTest +16.3 ms</text>
<text x="558" y="175.0" fill="#5c8a8a" font-weight="bold">ut +24.4 ms</text>
<text x="558" y="55.6" fill="#8e6bbf" font-weight="bold">Boost.Test +35.1 ms</text>
<polyline points="60.9,235.8 179.5,187.1 550.0,51.6" fill="none" stroke="#8e6bbf" stroke-width="2.5"/>
<circle cx="60.9" cy="235.8" r="3" fill="#8e6bbf"/>
<circle cx="179.5" cy="187.1" r="3" fill="#8e6bbf"/>
<circle cx="550.0" cy="51.6" r="3" fill="#8e6bbf"/>
<polyline points="60.9,318.3 179.5,305.0 550.0,267.0" fill="none" stroke="#2e86ab" stroke-width="2.5"/>
<circle cx="60.9" cy="318.3" r="3" fill="#2e86ab"/>
<circle cx="179.5" cy="305.0" r="3" fill="#2e86ab"/>
<circle cx="550.0" cy="267.0" r="3" fill="#2e86ab"/>
<polyline points="60.9,309.2 179.5,297.4 550.0,264.1" fill="none" stroke="#3fa34d" stroke-width="2.5"/>
<circle cx="60.9" cy="309.2" r="3" fill="#3fa34d"/>
<circle cx="179.5" cy="297.4" r="3" fill="#3fa34d"/>
<circle cx="550.0" cy="264.1" r="3" fill="#3fa34d"/>
<polyline points="60.9,316.6 179.5,298.7 550.0,232.3" fill="none" stroke="#e09f3e" stroke-width="2.5"/>
<circle cx="60.9" cy="316.6" r="3" fill="#e09f3e"/>
<circle cx="179.5" cy="298.7" r="3" fill="#e09f3e"/>
<circle cx="550.0" cy="232.3" r="3" fill="#e09f3e"/>
<polyline points="60.9,348.5 179.5,336.8 550.0,294.6" fill="none" stroke="#d1495b" stroke-width="2.5"/>
<circle cx="60.9" cy="348.5" r="3" fill="#d1495b"/>
<circle cx="179.5" cy="336.8" r="3" fill="#d1495b"/>
<circle cx="550.0" cy="294.6" r="3" fill="#d1495b"/>
<polyline points="60.9,297.9 179.5,267.5 550.0,171.0" fill="none" stroke="#5c8a8a" stroke-width="2.5"/>
<circle cx="60.9" cy="297.9" r="3" fill="#5c8a8a"/>
<circle cx="179.5" cy="267.5" r="3" fill="#5c8a8a"/>
<circle cx="550.0" cy="171.0" r="3" fill="#5c8a8a"/>
</svg>