<svg xmlns="http://www.w3.org/2000/svg" viewBox="0 0 720 252" font-family="sans-serif" font-size="12">
<text x="96" y="22" fill="#808080" font-size="14">g++ 15.2.0 -O0, minimal include cost</text>
<line x1="96.0" x2="96.0" y1="40" y2="208" stroke="#808080" stroke-opacity="0.3"/>
<text x="96.0" y="224" fill="#808080" text-anchor="middle">0 s</text>
<line x1="254.0" x2="254.0" y1="40" y2="208" stroke="#808080" stroke-opacity="0.3"/>
<text x="254.0" y="224" fill="#808080" text-anchor="middle">2 s</text>
<line x1="412.0" x2="412.0" y1="40" y2="208" stroke="#808080" stroke-opacity="0.3"/>
<text x="412.0" y="224" fill="#808080" text-anchor="middle">4 s</text>
<line x1="570.0" x2="570.0" y1="40" y2="208" stroke="#808080" stroke-opacity="0.3"/>
<text x="570.0" y="224" fill="#808080" text-anchor="middle">6 s</text>
<text x="88" y="58" fill="#d1495b" font-weight="bold" text-anchor="end">TTS</text>
<rect x="96" y="46" width="20.8" height="16" fill="#d1495b"/>
<text x="122.8" y="58" fill="#808080">0.26 s, 59 MiB</text>
<text x="88" y="86" fill="#e09f3e" font-weight="bold" text-anchor="end">GoogleTest</text>
<rect x="96" y="74" width="57.7" height="16" fill="#e09f3e"/>
<text x="159.7" y="86" fill="#808080">0.73 s, 177 MiB</text>
<text x="88" y="114" fill="#2e86ab" font-weight="bold" text-anchor="end">Catch2</text>
<rect x="96" y="102" width="59.7" height="16" fill="#2e86ab"/>
<text x="161.7" y="114" fill="#808080">0.76 s, 162 MiB</text>
<text x="88" y="142" fill="#5c8a8a" font-weight="bold" text-anchor="end">ut</text>
<rect x="96" y="130" width="97.0" height="16" fill="#5c8a8a"/>
<text x="199.0" y="142" fill="#808080">1.23 s, 228 MiB</text>
<text x="88" y="170" fill="#3fa34d" font-weight="bold" text-anchor="end">doctest</text>
<rect x="96" y="158" width="137.4" height="16" fill="#3fa34d"/>
<text x="239.4" y="170" fill="#808080">1.74 s, 248 MiB</text>
<text x="88" y="198" fill="#8e6bbf" font-weight="bold" text-anchor="end">Boost.Test</text>
<rect x="96" y="186" width="469.8" height="16" fill="#8e6bbf"/>
<text x="571.8" y="198" fill="#808080">5.95 s, 538 MiB</text>
</svg>